<svg xmlns="http://www.w3.org/2000/svg" width="33" height="32" viewBox="0 0 33 32" fill="none"><g clip-path="url(#clip0_2515_2565)"><path d="M7.16797 22.6667C7.16797 23.3739 7.44892 24.0522 7.94902 24.5523C8.44911 25.0524 9.12739 25.3333 9.83464 25.3333C10.5419 25.3333 11.2202 25.0524 11.7203 24.5523C12.2203 24.0522 12.5013 23.3739 12.5013 22.6667C12.5013 21.9594 12.2203 21.2811 11.7203 20.781C11.2202 20.281 10.5419 20 9.83464 20C9.12739 20 8.44911 20.281 7.94902 20.781C7.44892 21.2811 7.16797 21.9594 7.16797 22.6667Z" stroke="black" stroke-width="2" stroke-linecap="round" stroke-linejoin="round"></path><path d="M20.5 22.6667C20.5 23.3739 20.781 24.0522 21.281 24.5523C21.7811 25.0524 22.4594 25.3333 23.1667 25.3333C23.8739 25.3333 24.5522 25.0524 25.0523 24.5523C25.5524 24.0522 25.8333 23.3739 25.8333 22.6667C25.8333 21.9594 25.5524 21.2811 25.0523 20.781C24.5522 20.281 23.8739 20 23.1667 20C22.4594 20 21.7811 20.281 21.281 20.781C20.781 21.2811 20.5 21.9594 20.5 22.6667Z" stroke="black" stroke-width="2" stroke-linecap="round" stroke-linejoin="round"></path><path d="M7.16667 22.6667H4.5V14.6667M4.5 14.6667L7.16667 8H19.1667L24.5 14.6667M4.5 14.6667H24.5M24.5 14.6667H25.8333C26.5406 14.6667 27.2189 14.9476 27.719 15.4477C28.219 15.9478 28.5 16.6261 28.5 17.3333V22.6667H25.8333M20.5 22.6667H12.5M16.5 14.6667V8" stroke="black" stroke-width="2" stroke-linecap="round" stroke-linejoin="round"></path></g><defs><clipPath id="clip0_2515_2565"><rect width="32" height="32" fill="white" transform="translate(0.5)"></rect></clipPath></defs></svg>