<svg width="28" height="28" viewBox="0 0 28 28" fill="none" xmlns="http://www.w3.org/2000/svg">
<g clip-path="url(#clip0_7811_7803)">
<path d="M15.3924 10.5H23.1111C23.4355 10.4999 23.7564 10.5675 24.0533 10.6985C24.3501 10.8294 24.6164 11.0209 24.8351 11.2605C25.0538 11.5002 25.2201 11.7829 25.3234 12.0904C25.4267 12.398 25.4647 12.7237 25.435 13.0468L24.7736 20.2592C24.6673 21.4182 24.1319 22.4957 23.2722 23.2803C22.4125 24.0649 21.2906 24.4999 20.1267 24.5H18.3767C17.2128 24.4999 16.091 24.0649 15.2313 23.2803C14.3716 22.4957 13.8361 21.4182 13.7299 20.2592L13.0684 13.0468C13.0387 12.7237 13.0767 12.398 13.18 12.0904C13.2833 11.7829 13.4496 11.5002 13.6683 11.2605C13.887 11.0209 14.1533 10.8294 14.4502 10.6985C14.747 10.5675 15.0679 10.4999 15.3924 10.5Z" stroke="black" stroke-linecap="round" stroke-linejoin="round"/>
<path d="M17.5 15.1667H17.5117" stroke="black" stroke-linecap="round" stroke-linejoin="round"/>
<path d="M21 15.1667H21.0117" stroke="black" stroke-linecap="round" stroke-linejoin="round"/>
<path d="M17.5 19.25C18.6667 20.0282 19.8333 20.0282 21 19.25" stroke="black" stroke-linecap="round" stroke-linejoin="round"/>
<path d="M10.0724 18.6457C9.92424 18.6598 9.77552 18.6668 9.62672 18.6667H7.87672C6.71282 18.6667 5.59097 18.2316 4.73127 17.4471C3.87157 16.6625 3.33609 15.585 3.22988 14.4259L2.56838 7.21358C2.53869 6.89049 2.57672 6.56475 2.68002 6.25718C2.78332 5.94961 2.94963 5.66696 3.16833 5.42729C3.38703 5.18762 3.65331 4.9962 3.95017 4.86524C4.24702 4.73429 4.56793 4.66668 4.89238 4.66675H12.611C13.2299 4.66675 13.8234 4.91258 14.261 5.35017C14.6986 5.78775 14.9444 6.38124 14.9444 7.00008" stroke="black" stroke-linecap="round" stroke-linejoin="round"/>
<path d="M7 9.33325H7.01167" stroke="black" stroke-linecap="round" stroke-linejoin="round"/>
<path d="M10.5 9.33325H10.5117" stroke="black" stroke-linecap="round" stroke-linejoin="round"/>
<path d="M7 14.0001C7.89133 13.4051 8.78267 13.2651 9.67283 13.5801" stroke="black" stroke-linecap="round" stroke-linejoin="round"/>
</g>
<defs>
<clipPath id="clip0_7811_7803">
<rect width="28" height="28" fill="white"/>
</clipPath>
</defs>
</svg>
