<svg width="28" height="28" viewBox="0 0 28 28" fill="none" xmlns="http://www.w3.org/2000/svg">
<g clip-path="url(#clip0_7811_7803)">
<path d="M15.3904 10.5H23.1091C23.4336 10.4999 23.7545 10.5675 24.0513 10.6985C24.3482 10.8294 24.6144 11.0209 24.8331 11.2605C25.0518 11.5002 25.2182 11.7829 25.3215 12.0904C25.4248 12.398 25.4628 12.7237 25.4331 13.0468L24.7716 20.2592C24.6654 21.4182 24.1299 22.4957 23.2702 23.2803C22.4105 24.0649 21.2887 24.4999 20.1248 24.5H18.3748C17.2109 24.4999 16.089 24.0649 15.2293 23.2803C14.3696 22.4957 13.8341 21.4182 13.7279 20.2592L13.0664 13.0468C13.0367 12.7237 13.0748 12.398 13.1781 12.0904C13.2814 11.7829 13.4477 11.5002 13.6664 11.2605C13.8851 11.0209 14.1514 10.8294 14.4482 10.6985C14.7451 10.5675 15.066 10.4999 15.3904 10.5Z" stroke="black" stroke-width="2" stroke-linecap="round" stroke-linejoin="round"/>
<path d="M17.5 15.1665H17.5117" stroke="black" stroke-width="2" stroke-linecap="round" stroke-linejoin="round"/>
<path d="M21 15.1665H21.0117" stroke="black" stroke-width="2" stroke-linecap="round" stroke-linejoin="round"/>
<path d="M17.5 19.25C18.6667 20.0282 19.8333 20.0282 21 19.25" stroke="black" stroke-width="2" stroke-linecap="round" stroke-linejoin="round"/>
<path d="M10.0704 18.6455C9.92229 18.6595 9.77357 18.6665 9.62476 18.6665H7.87476C6.71087 18.6664 5.58901 18.2314 4.72932 17.4468C3.86962 16.6622 3.33413 15.5847 3.22793 14.4257L2.56643 7.21334C2.53674 6.89024 2.57476 6.56451 2.67806 6.25694C2.78137 5.94936 2.94768 5.66672 3.16638 5.42705C3.38508 5.18738 3.65136 4.99595 3.94822 4.865C4.24507 4.73404 4.56597 4.66644 4.89043 4.6665H12.6091C13.2279 4.6665 13.8214 4.91234 14.259 5.34992C14.6966 5.78751 14.9424 6.381 14.9424 6.99984" stroke="black" stroke-width="2" stroke-linecap="round" stroke-linejoin="round"/>
<path d="M7 9.3335H7.01167" stroke="black" stroke-width="2" stroke-linecap="round" stroke-linejoin="round"/>
<path d="M10.5 9.3335H10.5117" stroke="black" stroke-width="2" stroke-linecap="round" stroke-linejoin="round"/>
<path d="M7 14.0001C7.89133 13.4051 8.78267 13.2651 9.67283 13.5801" stroke="black" stroke-width="2" stroke-linecap="round" stroke-linejoin="round"/>
</g>
<defs>
<clipPath id="clip0_7811_7803">
<rect width="28" height="28" fill="white"/>
</clipPath>
</defs>
</svg>
