<svg width="28" height="28" viewBox="0 0 28 28" fill="none" xmlns="http://www.w3.org/2000/svg">
<g clip-path="url(#clip0_7811_7814)">
<path d="M5.83203 21V14C5.83203 12.1435 6.56953 10.363 7.88228 9.05025C9.19504 7.7375 10.9755 7 12.832 7H15.1654C17.0219 7 18.8024 7.7375 20.1151 9.05025C21.4279 10.363 22.1654 12.1435 22.1654 14V21C22.1654 21.9283 21.7966 22.8185 21.1402 23.4749C20.4839 24.1313 19.5936 24.5 18.6654 24.5H9.33203C8.40377 24.5 7.51354 24.1313 6.85716 23.4749C6.20078 22.8185 5.83203 21.9283 5.83203 21Z" stroke="black" stroke-linecap="round" stroke-linejoin="round"/>
<path d="M11.668 7V5.83333C11.668 5.21449 11.9138 4.621 12.3514 4.18342C12.789 3.74583 13.3825 3.5 14.0013 3.5C14.6201 3.5 15.2136 3.74583 15.6512 4.18342C16.0888 4.621 16.3346 5.21449 16.3346 5.83333V7" stroke="black" stroke-linecap="round" stroke-linejoin="round"/>
<path d="M10.5 24.5V19.8333C10.5 19.2145 10.7458 18.621 11.1834 18.1834C11.621 17.7458 12.2145 17.5 12.8333 17.5H15.1667C15.7855 17.5 16.379 17.7458 16.8166 18.1834C17.2542 18.621 17.5 19.2145 17.5 19.8333V24.5" stroke="black" stroke-linecap="round" stroke-linejoin="round"/>
<path d="M12.832 11.6667H15.1654" stroke="black" stroke-linecap="round" stroke-linejoin="round"/>
</g>
<defs>
<clipPath id="clip0_7811_7814">
<rect width="28" height="28" fill="white"/>
</clipPath>
</defs>
</svg>
