<svg width="28" height="28" viewBox="0 0 28 28" fill="none" xmlns="http://www.w3.org/2000/svg">
<g clip-path="url(#clip0_7811_7887)">
<path d="M5.83301 19.8333C5.83301 20.4522 6.07884 21.0457 6.51643 21.4832C6.95401 21.9208 7.5475 22.1667 8.16634 22.1667C8.78518 22.1667 9.37867 21.9208 9.81626 21.4832C10.2538 21.0457 10.4997 20.4522 10.4997 19.8333C10.4997 19.2145 10.2538 18.621 9.81626 18.1834C9.37867 17.7458 8.78518 17.5 8.16634 17.5C7.5475 17.5 6.95401 17.7458 6.51643 18.1834C6.07884 18.621 5.83301 19.2145 5.83301 19.8333Z" stroke="black" stroke-width="2" stroke-linecap="round" stroke-linejoin="round"/>
<path d="M18.667 19.8333C18.667 20.4522 18.9128 21.0457 19.3504 21.4832C19.788 21.9208 20.3815 22.1667 21.0003 22.1667C21.6192 22.1667 22.2127 21.9208 22.6502 21.4832C23.0878 21.0457 23.3337 20.4522 23.3337 19.8333C23.3337 19.2145 23.0878 18.621 22.6502 18.1834C22.2127 17.7458 21.6192 17.5 21.0003 17.5C20.3815 17.5 19.788 17.7458 19.3504 18.1834C18.9128 18.621 18.667 19.2145 18.667 19.8333Z" stroke="black" stroke-width="2" stroke-linecap="round" stroke-linejoin="round"/>
<path d="M5.83301 10.4999L8.16634 5.83325H16.844C17.3643 5.83333 17.8697 6.00732 18.2798 6.32757C18.6899 6.64783 18.9812 7.09596 19.1073 7.60075L19.833 10.4999H23.333C23.9518 10.4999 24.5453 10.7458 24.9829 11.1833C25.4205 11.6209 25.6663 12.2144 25.6663 12.8333V16.3333" stroke="black" stroke-width="2" stroke-linecap="round" stroke-linejoin="round"/>
<path d="M11.667 10.4999V5.83325" stroke="black" stroke-width="2" stroke-linecap="round" stroke-linejoin="round"/>
<path d="M2.33301 8.16675V12.8334" stroke="black" stroke-width="2" stroke-linecap="round" stroke-linejoin="round"/>
<path d="M25.6674 16.3344C25.1246 15.6091 24.42 15.0203 23.6096 14.6151C22.7993 14.2098 21.9056 13.9992 20.9996 13.9999C20.0939 13.9992 19.2005 14.2097 18.3904 14.6148C17.5802 15.0199 16.8758 15.6083 16.3329 16.3333H12.8329C12.2897 15.6079 11.5848 15.0192 10.7743 14.6138C9.96375 14.2084 9.06989 13.9975 8.16363 13.9978C7.25738 13.9981 6.36368 14.2097 5.55347 14.6157C4.74325 15.0217 4.03882 15.611 3.49609 16.3368" stroke="black" stroke-width="2" stroke-linecap="round" stroke-linejoin="round"/>
<path d="M5.83301 14V10.5H20.9997" stroke="black" stroke-width="2" stroke-linecap="round" stroke-linejoin="round"/>
</g>
<defs>
<clipPath id="clip0_7811_7887">
<rect width="28" height="28" fill="white"/>
</clipPath>
</defs>
</svg>
