<svg width="28" height="28" viewBox="0 0 28 28" fill="none" xmlns="http://www.w3.org/2000/svg">
<g clip-path="url(#clip0_7811_7828)">
<path d="M14 10.5L4.7005 15.666C4.33657 15.8681 4.03333 16.1639 3.82224 16.5227C3.61115 16.8815 3.49989 17.2902 3.5 17.7065V18.6667C3.5 19.2855 3.74583 19.879 4.18342 20.3166C4.621 20.7542 5.21449 21 5.83333 21H7" stroke="black" stroke-width="2" stroke-linecap="round" stroke-linejoin="round"/>
<path d="M21.0003 21H22.167C22.7858 21 23.3793 20.7542 23.8169 20.3166C24.2545 19.879 24.5003 19.2855 24.5003 18.6667V17.7065C24.5004 17.2902 24.3892 16.8815 24.1781 16.5227C23.967 16.1639 23.6638 15.8681 23.2998 15.666L14.0003 10.5C12.3005 9.555 11.6752 7.77817 11.667 5.83333C11.667 5.21449 11.9128 4.621 12.3504 4.18342C12.788 3.74583 13.3815 3.5 14.0003 3.5C14.6192 3.5 15.2127 3.74583 15.6502 4.18342C16.0878 4.621 16.3337 5.21449 16.3337 5.83333" stroke="black" stroke-width="2" stroke-linecap="round" stroke-linejoin="round"/>
<path d="M7 21.0001C7 20.3812 7.24583 19.7878 7.68342 19.3502C8.121 18.9126 8.71449 18.6667 9.33333 18.6667H18.6667C19.2855 18.6667 19.879 18.9126 20.3166 19.3502C20.7542 19.7878 21 20.3812 21 21.0001V22.1667C21 22.7856 20.7542 23.3791 20.3166 23.8167C19.879 24.2542 19.2855 24.5001 18.6667 24.5001H9.33333C8.71449 24.5001 8.121 24.2542 7.68342 23.8167C7.24583 23.3791 7 22.7856 7 22.1667V21.0001Z" stroke="black" stroke-width="2" stroke-linecap="round" stroke-linejoin="round"/>
</g>
<defs>
<clipPath id="clip0_7811_7828">
<rect width="28" height="28" fill="white"/>
</clipPath>
</defs>
</svg>
