<svg width="28" height="28" viewBox="0 0 28 28" fill="none" xmlns="http://www.w3.org/2000/svg">
<g clip-path="url(#clip0_7811_7880)">
<path d="M10.5 14L7 10.5H4.66667C4.35725 10.5 4.0605 10.6229 3.84171 10.8417C3.62292 11.0605 3.5 11.3572 3.5 11.6667V16.3333C3.5 16.6428 3.62292 16.9395 3.84171 17.1583C4.0605 17.3771 4.35725 17.5 4.66667 17.5H7L10.5 14Z" stroke="black" stroke-width="2" stroke-linecap="round" stroke-linejoin="round"/>
<path d="M17.5 14L21 10.5H23.3333C23.6428 10.5 23.9395 10.6229 24.1583 10.8417C24.3771 11.0605 24.5 11.3572 24.5 11.6667V16.3333C24.5 16.6428 24.3771 16.9395 24.1583 17.1583C23.9395 17.3771 23.6428 17.5 23.3333 17.5H21L17.5 14Z" stroke="black" stroke-width="2" stroke-linecap="round" stroke-linejoin="round"/>
<path d="M14 17.5L10.5 21V23.3333C10.5 23.6428 10.6229 23.9395 10.8417 24.1583C11.0605 24.3771 11.3572 24.5 11.6667 24.5H16.3333C16.6428 24.5 16.9395 24.3771 17.1583 24.1583C17.3771 23.9395 17.5 23.6428 17.5 23.3333V21L14 17.5Z" stroke="black" stroke-width="2" stroke-linecap="round" stroke-linejoin="round"/>
<path d="M14 10.5L10.5 7V4.66667C10.5 4.35725 10.6229 4.0605 10.8417 3.84171C11.0605 3.62292 11.3572 3.5 11.6667 3.5H16.3333C16.6428 3.5 16.9395 3.62292 17.1583 3.84171C17.3771 4.0605 17.5 4.35725 17.5 4.66667V7L14 10.5Z" stroke="black" stroke-width="2" stroke-linecap="round" stroke-linejoin="round"/>
</g>
<defs>
<clipPath id="clip0_7811_7880">
<rect width="28" height="28" fill="white"/>
</clipPath>
</defs>
</svg>
