<svg xmlns="http://www.w3.org/2000/svg" width="52" height="52" viewBox="0 0 52 52" fill="none"><path d="M6.55555 26H1L26 1L51 26H45.4444" stroke="#10A003" stroke-width="2" stroke-linecap="round" stroke-linejoin="round"></path><path d="M6.55859 26V45.4444C6.55859 46.9178 7.14391 48.3309 8.18578 49.3728C9.22764 50.4147 10.6407 51 12.1141 51H39.8919C41.3653 51 42.7784 50.4147 43.8203 49.3728C44.8621 48.3309 45.4474 46.9178 45.4474 45.4444V26" stroke="#10A003" stroke-width="2" stroke-linecap="round" stroke-linejoin="round"></path><path d="M17.668 51V34.3334C17.668 32.86 18.2533 31.4469 19.2952 30.405C20.337 29.3631 21.7501 28.7778 23.2235 28.7778H28.7791C30.2525 28.7778 31.6656 29.3631 32.7074 30.405C33.7493 31.4469 34.3346 32.86 34.3346 34.3334V51" fill="#10A003"></path><path d="M17.668 51V34.3334C17.668 32.86 18.2533 31.4469 19.2952 30.405C20.337 29.3631 21.7501 28.7778 23.2235 28.7778H28.7791C30.2525 28.7778 31.6656 29.3631 32.7074 30.405C33.7493 31.4469 34.3346 32.86 34.3346 34.3334V51" stroke="#10A003" stroke-width="2" stroke-linecap="round" stroke-linejoin="round"></path></svg>