<svg xmlns="http://www.w3.org/2000/svg" width="32" height="32" viewBox="0 0 32 32" fill="none"><g clip-path="url(#clip0_2515_2604)"><path d="M15.9986 4L22.5573 10C23.3706 10.7827 24.1266 11.5693 24.828 12.3613C25.9487 13.6349 26.5958 15.2561 26.6599 16.9514C26.7241 18.6466 26.2013 20.3121 25.18 21.6667C23.6066 23.7467 20.7293 24.2267 18.6653 22.6667V24L19.9986 28H11.9986L13.332 24V22.6667C11.2786 24.0933 8.35195 23.696 6.81729 21.6667C5.79591 20.3121 5.27317 18.6466 5.3373 16.9514C5.40143 15.2561 6.0485 13.6349 7.16929 12.3613C7.89455 11.5444 8.65204 10.7567 9.43995 10C11.6218 7.99528 13.8081 5.99527 15.9986 4Z" stroke="black" stroke-width="2" stroke-linecap="round" stroke-linejoin="round"></path></g><defs><clipPath id="clip0_2515_2604"><rect width="32" height="32" fill="white"></rect></clipPath></defs></svg>