<svg xmlns="http://www.w3.org/2000/svg" width="33" height="32" viewBox="0 0 33 32" fill="none"><g clip-path="url(#clip0_2515_2653)"><path d="M27.1654 4V17.3333C27.1654 20.1623 26.0416 22.8754 24.0412 24.8758C22.0408 26.8762 19.3277 28 16.4987 28C13.6697 28 10.9566 26.8762 8.95623 24.8758C6.95584 22.8754 5.83203 20.1623 5.83203 17.3333V4L10.408 8.576C12.1944 7.32991 14.3207 6.66334 16.4987 6.66667C18.8574 6.66667 21.036 7.432 22.8027 8.728L27.1654 4Z" stroke="black" stroke-width="2" stroke-linecap="round" stroke-linejoin="round"></path><path d="M3.16797 21.3333H9.83464L4.5013 26.6666" stroke="black" stroke-width="2" stroke-linecap="round" stroke-linejoin="round"></path><path d="M29.8346 21.3333H23.168L28.5013 26.6666" stroke="black" stroke-width="2" stroke-linecap="round" stroke-linejoin="round"></path><path d="M15.168 21.3333C15.168 21.687 15.3084 22.0261 15.5585 22.2761C15.8085 22.5262 16.1477 22.6667 16.5013 22.6667C16.8549 22.6667 17.1941 22.5262 17.4441 22.2761C17.6942 22.0261 17.8346 21.687 17.8346 21.3333C17.8346 20.9797 17.6942 20.6406 17.4441 20.3905C17.1941 20.1405 16.8549 20 16.5013 20C16.1477 20 15.8085 20.1405 15.5585 20.3905C15.3084 20.6406 15.168 20.9797 15.168 21.3333Z" stroke="black" stroke-width="2" stroke-linecap="round" stroke-linejoin="round"></path><path d="M12.5 14.6667V14.68" stroke="black" stroke-width="2" stroke-linecap="round" stroke-linejoin="round"></path><path d="M20.5 14.6667V14.68" stroke="black" stroke-width="2" stroke-linecap="round" stroke-linejoin="round"></path></g><defs><clipPath id="clip0_2515_2653"><rect width="32" height="32" fill="white" transform="translate(0.5)"></rect></clipPath></defs></svg>