<svg xmlns="http://www.w3.org/2000/svg" width="33" height="32" viewBox="0 0 33 32" fill="none"><g clip-path="url(#clip0_2515_2609)"><path d="M4.49885 28C4.49885 28 17.6109 23.348 21.4109 19.5467C22.5322 18.4248 23.1621 16.9036 23.1621 15.3174C23.1621 13.7312 22.5322 12.2099 21.4109 11.088C20.8558 10.5326 20.1966 10.0919 19.4712 9.79131C18.7457 9.49068 17.9681 9.33594 17.1829 9.33594C16.3976 9.33594 15.62 9.49068 14.8945 9.79131C14.1691 10.0919 13.51 10.5326 12.9549 11.088C9.14152 14.9027 4.49219 28.0067 4.49219 28.0067L4.49885 28Z" stroke="black" stroke-width="2" stroke-linecap="round" stroke-linejoin="round"></path><path d="M12.5 17.3333L10.5 15.3333" stroke="black" stroke-width="2" stroke-linecap="round" stroke-linejoin="round"></path><path d="M21.8346 18.6667L19.168 16" stroke="black" stroke-width="2" stroke-linecap="round" stroke-linejoin="round"></path><path d="M29.832 10.6667C29.832 10.6667 28.312 8 25.832 8C23.9574 8 21.832 10.6667 21.832 10.6667C21.832 10.6667 23.352 13.3333 25.832 13.3333C28.312 13.3333 29.832 10.6667 29.832 10.6667Z" stroke="black" stroke-width="2" stroke-linecap="round" stroke-linejoin="round"></path><path d="M21.8346 2.66675C21.8346 2.66675 19.168 4.18675 19.168 6.66675C19.168 9.14675 21.8346 10.6667 21.8346 10.6667C21.8346 10.6667 24.5013 8.56408 24.5013 6.66675C24.5013 4.18675 21.8346 2.66675 21.8346 2.66675Z" stroke="black" stroke-width="2" stroke-linecap="round" stroke-linejoin="round"></path></g><defs><clipPath id="clip0_2515_2609"><rect width="32" height="32" fill="white" transform="translate(0.5)"></rect></clipPath></defs></svg>