<svg xmlns="http://www.w3.org/2000/svg" width="33" height="32" viewBox="0 0 33 32" fill="none"><path d="M21.832 8L21.832 5.33333C21.832 4.97971 21.6916 4.64057 21.4415 4.39052C21.1915 4.14048 20.8523 4 20.4987 4L12.4987 4C12.1451 4 11.8059 4.14048 11.5559 4.39052C11.3058 4.64057 11.1654 4.97971 11.1654 5.33333L11.1654 8" stroke="black" stroke-width="2" stroke-linecap="round" stroke-linejoin="round"></path><path d="M23.1667 8L9.83333 8C9.47971 8 9.14057 8.14048 8.89052 8.39052C8.64047 8.64057 8.5 8.97971 8.5 9.33333L8.5 10.6667C8.5 11.0203 8.64047 11.3594 8.89052 11.6095C9.14057 11.8595 9.47971 12 9.83333 12L23.1667 12C23.5203 12 23.8594 11.8595 24.1095 11.6095C24.3595 11.3594 24.5 11.0203 24.5 10.6667L24.5 9.33333C24.5 8.97971 24.3595 8.64057 24.1095 8.39052C23.8594 8.14048 23.5203 8 23.1667 8Z" stroke="black" stroke-width="2" stroke-linecap="round" stroke-linejoin="round"></path><path d="M16.5 12L16.5 20" stroke="black" stroke-width="2" stroke-linecap="round" stroke-linejoin="round"></path><path d="M23.1667 20L9.83333 20C9.47971 20 9.14057 20.1405 8.89052 20.3905C8.64047 20.6406 8.5 20.9797 8.5 21.3333L8.5 22.6667C8.5 23.0203 8.64047 23.3594 8.89052 23.6095C9.14057 23.8595 9.47971 24 9.83333 24L23.1667 24C23.5203 24 23.8594 23.8595 24.1095 23.6095C24.3595 23.3594 24.5 23.0203 24.5 22.6667L24.5 21.3333C24.5 20.9797 24.3595 20.6406 24.1095 20.3905C23.8594 20.1405 23.5203 20 23.1667 20Z" stroke="black" stroke-width="2" stroke-linecap="round" stroke-linejoin="round"></path><path d="M21.832 24L21.832 26.6667C21.832 27.0203 21.6916 27.3594 21.4415 27.6095C21.1915 27.8595 20.8523 28 20.4987 28L12.4987 28C12.1451 28 11.8059 27.8595 11.5559 27.6095C11.3058 27.3594 11.1654 27.0203 11.1654 26.6667L11.1654 24" stroke="black" stroke-width="2" stroke-linecap="round" stroke-linejoin="round"></path></svg>