<svg xmlns="http://www.w3.org/2000/svg" width="33" height="32" viewBox="0 0 33 32" fill="none"><g clip-path="url(#clip0_2515_2589)"><path d="M4.5 22.6667C4.5 23.7276 4.92143 24.745 5.67157 25.4951C6.42172 26.2453 7.43913 26.6667 8.5 26.6667C9.56087 26.6667 10.5783 26.2453 11.3284 25.4951C12.0786 24.745 12.5 23.7276 12.5 22.6667C12.5 21.6058 12.0786 20.5884 11.3284 19.8383C10.5783 19.0881 9.56087 18.6667 8.5 18.6667C7.43913 18.6667 6.42172 19.0881 5.67157 19.8383C4.92143 20.5884 4.5 21.6058 4.5 22.6667Z" stroke="black" stroke-width="2" stroke-linecap="round" stroke-linejoin="round"></path><path d="M17.832 22.6667C17.832 23.7276 18.2535 24.745 19.0036 25.4952C19.7537 26.2453 20.7712 26.6667 21.832 26.6667C22.8929 26.6667 23.9103 26.2453 24.6605 25.4952C25.4106 24.745 25.832 23.7276 25.832 22.6667C25.832 21.6059 25.4106 20.5885 24.6605 19.8383C23.9103 19.0882 22.8929 18.6667 21.832 18.6667C20.7712 18.6667 19.7537 19.0882 19.0036 19.8383C18.2535 20.5885 17.832 21.6059 17.832 22.6667Z" stroke="black" stroke-width="2" stroke-linecap="round" stroke-linejoin="round"></path><path d="M12.5 22.6666V5.33331H25.8333V22.6666" stroke="black" stroke-width="2" stroke-linecap="round" stroke-linejoin="round"></path><path d="M12.5 10.6667H25.8333" stroke="black" stroke-width="2" stroke-linecap="round" stroke-linejoin="round"></path></g><defs><clipPath id="clip0_2515_2589"><rect width="32" height="32" fill="white" transform="translate(0.5)"></rect></clipPath></defs></svg>