<svg xmlns="http://www.w3.org/2000/svg" width="50" height="50" viewBox="0 0 50 50" fill="none"><g clip-path="url(#clip0_2191_3430)"><path d="M22.9167 37.5002L18.75 35.4168L6.25 41.6668V14.5835L18.75 8.3335L31.25 14.5835L43.75 8.3335V23.9585" stroke="black" stroke-width="2.5" stroke-linecap="round" stroke-linejoin="round"></path><path d="M18.75 8.3335V35.4168" stroke="black" stroke-width="2.5" stroke-linecap="round" stroke-linejoin="round"></path><path d="M31.25 14.5835V25.0002" stroke="black" stroke-width="2.5" stroke-linecap="round" stroke-linejoin="round"></path><path d="M31.25 37.5C31.25 39.1576 31.9085 40.7473 33.0806 41.9194C34.2527 43.0915 35.8424 43.75 37.5 43.75C39.1576 43.75 40.7473 43.0915 41.9194 41.9194C43.0915 40.7473 43.75 39.1576 43.75 37.5C43.75 35.8424 43.0915 34.2527 41.9194 33.0806C40.7473 31.9085 39.1576 31.25 37.5 31.25C35.8424 31.25 34.2527 31.9085 33.0806 33.0806C31.9085 34.2527 31.25 35.8424 31.25 37.5Z" stroke="black" stroke-width="2.5" stroke-linecap="round" stroke-linejoin="round"></path><path d="M42.0859 42.0835L45.8359 45.8335" stroke="black" stroke-width="2.5" stroke-linecap="round" stroke-linejoin="round"></path></g><defs><clipPath id="clip0_2191_3430"><rect width="50" height="50" fill="white"></rect></clipPath></defs></svg>