<svg xmlns="http://www.w3.org/2000/svg" width="33" height="32" viewBox="0 0 33 32" fill="none"><g clip-path="url(#clip0_2515_2583)"><path d="M8.94042 10.6665H24.0591C24.4436 10.6665 24.8235 10.7496 25.1729 10.9101C25.5223 11.0707 25.8328 11.3048 26.0832 11.5966C26.3335 11.8884 26.5179 12.2309 26.6235 12.6006C26.7291 12.9703 26.7535 13.3585 26.6951 13.7385L25.0218 24.6078C24.8765 25.5524 24.3978 26.4138 23.6724 27.036C22.947 27.6582 22.0228 28.0001 21.0671 27.9998H11.9311C10.9756 27.9998 10.0517 27.6577 9.3266 27.0356C8.60146 26.4134 8.12299 25.5522 7.97776 24.6078L6.30442 13.7385C6.24598 13.3585 6.27041 12.9703 6.37603 12.6006C6.48165 12.2309 6.66597 11.8884 6.91635 11.5966C7.16673 11.3048 7.47725 11.0707 7.82661 10.9101C8.17598 10.7496 8.55593 10.6665 8.94042 10.6665Z" stroke="black" stroke-width="2" stroke-linecap="round" stroke-linejoin="round"></path><path d="M12.5 14.6667V8C12.5 6.93913 12.9214 5.92172 13.6716 5.17157C14.4217 4.42143 15.4391 4 16.5 4C17.5609 4 18.5783 4.42143 19.3284 5.17157C20.0786 5.92172 20.5 6.93913 20.5 8V14.6667" stroke="black" stroke-width="2" stroke-linecap="round" stroke-linejoin="round"></path></g><defs><clipPath id="clip0_2515_2583"><rect width="32" height="32" fill="white" transform="translate(0.5)"></rect></clipPath></defs></svg>