<svg xmlns="http://www.w3.org/2000/svg" width="50" height="50" viewBox="0 0 50 50" fill="none"><g clip-path="url(#clip0_2191_3460)"><path d="M16.6641 18.7498C16.6641 18.1973 16.8836 17.6674 17.2743 17.2767C17.665 16.886 18.1949 16.6665 18.7474 16.6665H31.2474C31.7999 16.6665 32.3298 16.886 32.7205 17.2767C33.1112 17.6674 33.3307 18.1973 33.3307 18.7498V31.2498C33.3307 31.8024 33.1112 32.3323 32.7205 32.723C32.3298 33.1137 31.7999 33.3332 31.2474 33.3332H18.7474C18.1949 33.3332 17.665 33.1137 17.2743 32.723C16.8836 32.3323 16.6641 31.8024 16.6641 31.2498V18.7498Z" stroke="black" stroke-width="2.5" stroke-linecap="round" stroke-linejoin="round"></path><path d="M25 41.6665V41.6873" stroke="black" stroke-width="2.5" stroke-linecap="round" stroke-linejoin="round"></path><path d="M33.3359 41.6665V41.6873" stroke="black" stroke-width="2.5" stroke-linecap="round" stroke-linejoin="round"></path><path d="M16.6641 41.6665V41.6873" stroke="black" stroke-width="2.5" stroke-linecap="round" stroke-linejoin="round"></path><path d="M8.33594 41.6665V41.6873" stroke="black" stroke-width="2.5" stroke-linecap="round" stroke-linejoin="round"></path><path d="M8.33594 33.3335V33.3543" stroke="black" stroke-width="2.5" stroke-linecap="round" stroke-linejoin="round"></path><path d="M8.33594 25V25.0208" stroke="black" stroke-width="2.5" stroke-linecap="round" stroke-linejoin="round"></path><path d="M8.33594 16.6665V16.6873" stroke="black" stroke-width="2.5" stroke-linecap="round" stroke-linejoin="round"></path><path d="M8.33594 8.3335V8.35433" stroke="black" stroke-width="2.5" stroke-linecap="round" stroke-linejoin="round"></path><path d="M16.6641 8.3335V8.35433" stroke="black" stroke-width="2.5" stroke-linecap="round" stroke-linejoin="round"></path><path d="M25 8.3335V8.35433" stroke="black" stroke-width="2.5" stroke-linecap="round" stroke-linejoin="round"></path><path d="M33.3359 8.3335V8.35433" stroke="black" stroke-width="2.5" stroke-linecap="round" stroke-linejoin="round"></path><path d="M41.6641 8.3335V8.35433" stroke="black" stroke-width="2.5" stroke-linecap="round" stroke-linejoin="round"></path><path d="M41.6641 16.6665V16.6873" stroke="black" stroke-width="2.5" stroke-linecap="round" stroke-linejoin="round"></path><path d="M41.6641 25V25.0208" stroke="black" stroke-width="2.5" stroke-linecap="round" stroke-linejoin="round"></path><path d="M41.6641 33.3335V33.3543" stroke="black" stroke-width="2.5" stroke-linecap="round" stroke-linejoin="round"></path><path d="M41.6641 41.6665V41.6873" stroke="black" stroke-width="2.5" stroke-linecap="round" stroke-linejoin="round"></path></g><defs><clipPath id="clip0_2191_3460"><rect width="50" height="50" fill="white"></rect></clipPath></defs></svg>