<svg xmlns="http://www.w3.org/2000/svg" width="33" height="32" viewBox="0 0 33 32" fill="none"><g clip-path="url(#clip0_2515_2618)"><path d="M7.16797 24V16C7.16797 13.8783 8.01082 11.8434 9.51111 10.3431C11.0114 8.84286 13.0462 8 15.168 8H17.8346C19.9564 8 21.9912 8.84286 23.4915 10.3431C24.9918 11.8434 25.8346 13.8783 25.8346 16V24C25.8346 25.0609 25.4132 26.0783 24.6631 26.8284C23.9129 27.5786 22.8955 28 21.8346 28H11.168C10.1071 28 9.08969 27.5786 8.33954 26.8284C7.5894 26.0783 7.16797 25.0609 7.16797 24Z" stroke="black" stroke-width="2" stroke-linecap="round" stroke-linejoin="round"></path><path d="M13.832 8V6.66667C13.832 5.95942 14.113 5.28115 14.6131 4.78105C15.1132 4.28095 15.7915 4 16.4987 4C17.2059 4 17.8842 4.28095 18.3843 4.78105C18.8844 5.28115 19.1654 5.95942 19.1654 6.66667V8" stroke="black" stroke-width="2" stroke-linecap="round" stroke-linejoin="round"></path><path d="M12.5 28V22.6667C12.5 21.9594 12.781 21.2811 13.281 20.781C13.7811 20.281 14.4594 20 15.1667 20H17.8333C18.5406 20 19.2189 20.281 19.719 20.781C20.219 21.2811 20.5 21.9594 20.5 22.6667V28" stroke="black" stroke-width="2" stroke-linecap="round" stroke-linejoin="round"></path><path d="M15.168 13.3333H17.8346" stroke="black" stroke-width="2" stroke-linecap="round" stroke-linejoin="round"></path></g><defs><clipPath id="clip0_2515_2618"><rect width="32" height="32" fill="white" transform="translate(0.5)"></rect></clipPath></defs></svg>