<svg xmlns="http://www.w3.org/2000/svg" width="50" height="50" viewBox="0 0 50 50" fill="none"><g clip-path="url(#clip0_2141_7263)"><path d="M16.6641 18.7497C16.6641 18.1972 16.8836 17.6673 17.2743 17.2766C17.665 16.8859 18.1949 16.6664 18.7474 16.6664H31.2474C31.7999 16.6664 32.3298 16.8859 32.7205 17.2766C33.1112 17.6673 33.3307 18.1972 33.3307 18.7497V31.2497C33.3307 31.8022 33.1112 32.3322 32.7205 32.7229C32.3298 33.1136 31.7999 33.333 31.2474 33.333H18.7474C18.1949 33.333 17.665 33.1136 17.2743 32.7229C16.8836 32.3322 16.6641 31.8022 16.6641 31.2497V18.7497Z" stroke="black" stroke-width="2.5" stroke-linecap="round" stroke-linejoin="round"></path><path d="M25 41.6664V41.6872" stroke="black" stroke-width="2.5" stroke-linecap="round" stroke-linejoin="round"></path><path d="M33.3359 41.6664V41.6872" stroke="black" stroke-width="2.5" stroke-linecap="round" stroke-linejoin="round"></path><path d="M16.6641 41.6664V41.6872" stroke="black" stroke-width="2.5" stroke-linecap="round" stroke-linejoin="round"></path><path d="M8.33594 41.6664V41.6872" stroke="black" stroke-width="2.5" stroke-linecap="round" stroke-linejoin="round"></path><path d="M8.33594 33.3331V33.354" stroke="black" stroke-width="2.5" stroke-linecap="round" stroke-linejoin="round"></path><path d="M8.33594 24.9998V25.0206" stroke="black" stroke-width="2.5" stroke-linecap="round" stroke-linejoin="round"></path><path d="M8.33594 16.6664V16.6872" stroke="black" stroke-width="2.5" stroke-linecap="round" stroke-linejoin="round"></path><path d="M8.33594 8.33313V8.35396" stroke="black" stroke-width="2.5" stroke-linecap="round" stroke-linejoin="round"></path><path d="M16.6641 8.33313V8.35396" stroke="black" stroke-width="2.5" stroke-linecap="round" stroke-linejoin="round"></path><path d="M25 8.3331V8.35393" stroke="black" stroke-width="2.5" stroke-linecap="round" stroke-linejoin="round"></path><path d="M33.3359 8.33313V8.35396" stroke="black" stroke-width="2.5" stroke-linecap="round" stroke-linejoin="round"></path><path d="M41.6641 8.33313V8.35396" stroke="black" stroke-width="2.5" stroke-linecap="round" stroke-linejoin="round"></path><path d="M41.6641 16.6664V16.6872" stroke="black" stroke-width="2.5" stroke-linecap="round" stroke-linejoin="round"></path><path d="M41.6641 24.9998V25.0206" stroke="black" stroke-width="2.5" stroke-linecap="round" stroke-linejoin="round"></path><path d="M41.6641 33.3331V33.354" stroke="black" stroke-width="2.5" stroke-linecap="round" stroke-linejoin="round"></path><path d="M41.6641 41.6664V41.6872" stroke="black" stroke-width="2.5" stroke-linecap="round" stroke-linejoin="round"></path></g><defs><clipPath id="clip0_2141_7263"><rect width="50" height="50" fill="white" transform="translate(0 -0.000244141)"></rect></clipPath></defs></svg>