<svg width="28" height="28" viewBox="0 0 28 28" fill="none" xmlns="http://www.w3.org/2000/svg">
<g clip-path="url(#clip0_7811_7834)">
<path d="M5.83333 12.8333C6.45217 12.8333 7.04566 13.0791 7.48325 13.5167C7.92083 13.9543 8.16667 14.5477 8.16667 15.1666V17.4999H19.8333V15.1666C19.8333 14.5477 20.0792 13.9543 20.5168 13.5167C20.9543 13.0791 21.5478 12.8333 22.1667 12.8333C22.7855 12.8333 23.379 13.0791 23.8166 13.5167C24.2542 13.9543 24.5 14.5477 24.5 15.1666V19.8333C24.5 20.4521 24.2542 21.0456 23.8166 21.4832C23.379 21.9208 22.7855 22.1666 22.1667 22.1666H5.83333C5.21449 22.1666 4.621 21.9208 4.18342 21.4832C3.74583 21.0456 3.5 20.4521 3.5 19.8333V15.1666C3.5 14.5477 3.74583 13.9543 4.18342 13.5167C4.621 13.0791 5.21449 12.8333 5.83333 12.8333Z" stroke="black" stroke-width="2" stroke-linecap="round" stroke-linejoin="round"/>
<path d="M5.83301 12.8333V7C5.83301 6.07174 6.20176 5.1815 6.85813 4.52513C7.51451 3.86875 8.40475 3.5 9.33301 3.5H18.6663C19.5946 3.5 20.4848 3.86875 21.1412 4.52513C21.7976 5.1815 22.1663 6.07174 22.1663 7V12.8333" stroke="black" stroke-width="2" stroke-linecap="round" stroke-linejoin="round"/>
<path d="M7 22.1667V24.5001" stroke="black" stroke-width="2" stroke-linecap="round" stroke-linejoin="round"/>
<path d="M21 22.1667V24.5001" stroke="black" stroke-width="2" stroke-linecap="round" stroke-linejoin="round"/>
</g>
<defs>
<clipPath id="clip0_7811_7834">
<rect width="28" height="28" fill="white"/>
</clipPath>
</defs>
</svg>
