<svg xmlns="http://www.w3.org/2000/svg" width="50" height="50" viewBox="0 0 50 50" fill="none"><g clip-path="url(#clip0_822_3504)"><path d="M22.9167 37.4998L18.75 35.4165L6.25 41.6665V14.5831L18.75 8.33313L31.25 14.5831L43.75 8.33313V23.9581" stroke="#FF002E" stroke-width="2.5" stroke-linecap="round" stroke-linejoin="round"></path><path d="M18.75 8.33313V35.4165" stroke="#FF002E" stroke-width="2.5" stroke-linecap="round" stroke-linejoin="round"></path><path d="M31.25 14.5831V24.9998" stroke="#FF002E" stroke-width="2.5" stroke-linecap="round" stroke-linejoin="round"></path><path d="M31.25 37.4998C31.25 39.1574 31.9085 40.7471 33.0806 41.9192C34.2527 43.0913 35.8424 43.7498 37.5 43.7498C39.1576 43.7498 40.7473 43.0913 41.9194 41.9192C43.0915 40.7471 43.75 39.1574 43.75 37.4998C43.75 35.8422 43.0915 34.2524 41.9194 33.0803C40.7473 31.9082 39.1576 31.2498 37.5 31.2498C35.8424 31.2498 34.2527 31.9082 33.0806 33.0803C31.9085 34.2524 31.25 35.8422 31.25 37.4998Z" stroke="#FF002E" stroke-width="2.5" stroke-linecap="round" stroke-linejoin="round"></path><path d="M42.0859 42.0831L45.8359 45.8331" stroke="#FF002E" stroke-width="2.5" stroke-linecap="round" stroke-linejoin="round"></path></g><defs><clipPath id="clip0_822_3504"><rect width="50" height="50" fill="white" transform="translate(0 -0.000244141)"></rect></clipPath></defs></svg>